<svg width="450" height="343" viewBox="0 0 450 343" fill="none" xmlns="http://www.w3.org/2000/svg">
<g clip-path="url(#clip0_283_176)">
<path d="M206.287 80.171L207.355 79.103L177.209 48.957L176.141 50.025L206.287 80.171Z" fill="url(#paint0_linear_283_176)"/>
<path d="M243.705 114.561L242.637 115.629L272.783 145.775L273.851 144.707L243.705 114.561Z" fill="url(#paint1_linear_283_176)"/>
<path d="M225 28.6782C187.063 28.6782 156.315 59.4332 156.315 97.3632C156.315 135.293 187.07 166.047 225 166.047C262.93 166.047 293.685 135.292 293.685 97.3622C293.685 59.4322 262.93 28.6782 225 28.6782ZM225 164.54C187.901 164.54 157.829 134.468 157.829 97.3692C157.829 60.2702 187.901 30.1982 225 30.1982C262.099 30.1982 292.171 60.2702 292.171 97.3692C292.171 134.468 262.099 164.54 225 164.54Z" fill="url(#paint2_linear_283_176)"/>
<path d="M272.553 170.58H274.059V24.1592H272.553V170.58Z" fill="url(#paint3_linear_283_176)"/>
<path d="M175.941 170.58H177.447V24.1592H175.941V170.58Z" fill="url(#paint4_linear_283_176)"/>
<path d="M151.789 146.429H298.21V144.923H151.789V146.429Z" fill="url(#paint5_linear_283_176)"/>
<path d="M224.243 194.731H225.749V144.811H224.243V194.731Z" fill="url(#paint6_linear_283_176)"/>
<path d="M224.243 49.92H225.749V0H224.243V49.92Z" fill="url(#paint7_linear_283_176)"/>
<path d="M151.789 49.8161H298.21V48.3101H151.789V49.8161Z" fill="url(#paint8_linear_283_176)"/>
<path d="M127.638 98.1261H177.454V96.6201H127.638V98.1261Z" fill="url(#paint9_linear_283_176)"/>
<path d="M272.553 98.1261H322.362V96.6201H272.553V98.1261Z" fill="url(#paint10_linear_283_176)"/>
<path d="M292.253 97.1318C288.81 96.9388 285.62 96.7168 283.201 96.3968V96.3748C280.085 95.9148 277.043 95.2468 274.067 94.3718C274.067 94.3718 273.652 94.2458 273.258 94.1268C272.902 94.0158 272.561 93.9118 272.561 93.9118C270.647 93.2958 268.762 92.5988 266.907 91.8118C258.552 88.1468 251.281 83.2268 245.1 77.0468C238.919 70.8658 234 63.5948 230.335 55.2398C229.549 53.3848 228.844 51.4998 228.235 49.5858L227.775 48.0798C226.899 45.1048 226.232 42.0548 225.772 38.9458H225.69C225.364 36.5048 225.134 33.2848 224.941 29.8198C224.748 33.1958 224.503 36.3418 224.162 39.0498H224.214C223.739 42.1218 223.064 45.1418 222.174 48.0868L221.699 49.5928C221.068 51.5068 220.341 53.3918 219.532 55.2468C216.045 63.4608 211.281 70.6278 205.249 76.7418L204.181 77.8028C198.164 83.6348 191.152 88.3018 183.139 91.8188C181.284 92.6048 179.399 93.3098 177.485 93.9188L175.979 94.3788C173.004 95.2548 169.954 95.9218 166.845 96.3818C164.404 96.7158 161.132 96.9458 157.622 97.1388C160.976 97.3318 164.099 97.5768 166.793 97.9108C170.325 98.4448 173.768 99.2538 177.129 100.345C179.162 101.005 181.165 101.77 183.139 102.63C191.494 106.177 198.765 111.044 204.946 117.225C211.127 123.406 215.994 130.677 219.541 139.032C220.357 140.887 221.077 142.772 221.708 144.686L222.183 146.192C223.081 149.145 223.756 152.165 224.231 155.259H224.179C224.513 157.96 224.758 161.106 224.958 164.482C225.151 161.002 225.373 157.767 225.707 155.341H225.789C226.249 152.217 226.917 149.175 227.792 146.2L228.252 144.694C228.868 142.78 229.565 140.895 230.352 139.04C233.869 131.027 238.536 124.008 244.368 117.998L245.429 116.922C251.543 110.89 258.71 106.126 266.924 102.639C268.779 101.823 270.664 101.103 272.578 100.472L274.084 99.9898C277.111 99.0698 280.213 98.3728 283.381 97.8978V97.8828C286.015 97.5638 289.035 97.3338 292.277 97.1408L292.253 97.1318ZM240.819 113.188C234.156 119.851 228.851 127.664 224.911 136.56C221.082 127.664 215.837 119.851 209.174 113.188C202.511 106.525 194.698 101.279 185.802 97.4508C194.698 93.5108 202.511 88.2128 209.174 81.5508C215.837 74.8878 221.083 67.0748 224.911 58.1788C228.851 67.0748 234.149 74.8878 240.819 81.5508C247.482 88.2138 255.295 93.5188 264.191 97.4508C255.295 101.28 247.482 106.526 240.819 113.188Z" fill="url(#paint11_linear_283_176)"/>
<path d="M292.253 97.1318C288.81 96.9388 285.62 96.7168 283.201 96.3968V96.3748C280.085 95.9148 277.043 95.2468 274.067 94.3718C274.067 94.3718 273.652 94.2458 273.258 94.1268C272.902 94.0158 272.561 93.9118 272.561 93.9118C270.647 93.2958 268.762 92.5988 266.907 91.8118C258.552 88.1468 251.281 83.2268 245.1 77.0468C238.919 70.8658 234 63.5948 230.335 55.2398C229.549 53.3848 228.844 51.4998 228.235 49.5858L227.775 48.0798C226.899 45.1048 226.232 42.0548 225.772 38.9458H225.69C225.364 36.5048 225.134 33.2848 224.941 29.8198C224.748 33.1958 224.503 36.3418 224.162 39.0498H224.214C223.739 42.1218 223.064 45.1418 222.174 48.0868L221.699 49.5928C221.068 51.5068 220.341 53.3918 219.532 55.2468C216.045 63.4608 211.281 70.6278 205.249 76.7418L204.181 77.8028C198.164 83.6348 191.152 88.3018 183.139 91.8188C181.284 92.6048 179.399 93.3098 177.485 93.9188L175.979 94.3788C173.004 95.2548 169.954 95.9218 166.845 96.3818C164.404 96.7158 161.132 96.9458 157.622 97.1388C160.976 97.3318 164.099 97.5768 166.793 97.9108C170.325 98.4448 173.768 99.2538 177.129 100.345C179.162 101.005 181.165 101.77 183.139 102.63C191.494 106.177 198.765 111.044 204.946 117.225C211.127 123.406 215.994 130.677 219.541 139.032C220.357 140.887 221.077 142.772 221.708 144.686L222.183 146.192C223.081 149.145 223.756 152.165 224.231 155.259H224.179C224.513 157.96 224.758 161.106 224.958 164.482C225.151 161.002 225.373 157.767 225.707 155.341H225.789C226.249 152.217 226.917 149.175 227.792 146.2L228.252 144.694C228.868 142.78 229.565 140.895 230.352 139.04C233.869 131.027 238.536 124.008 244.368 117.998L245.429 116.922C251.543 110.89 258.71 106.126 266.924 102.639C268.779 101.823 270.664 101.103 272.578 100.472L274.084 99.9898C277.111 99.0698 280.213 98.3728 283.381 97.8978V97.8828C286.015 97.5638 289.035 97.3338 292.277 97.1408L292.253 97.1318ZM240.819 113.188C234.156 119.851 228.851 127.664 224.911 136.56C221.082 127.664 215.837 119.851 209.174 113.188C202.511 106.525 194.698 101.279 185.802 97.4508C194.698 93.5108 202.511 88.2128 209.174 81.5508C215.837 74.8878 221.083 67.0748 224.911 58.1788C228.851 67.0748 234.149 74.8878 240.819 81.5508C247.482 88.2138 255.295 93.5188 264.191 97.4508C255.295 101.28 247.482 106.526 240.819 113.188Z" fill="url(#paint12_linear_283_176)"/>
<path d="M225 28.6782C187.063 28.6782 156.315 59.4332 156.315 97.3632C156.315 135.293 187.07 166.047 225 166.047C262.93 166.047 293.685 135.292 293.685 97.3622C293.685 59.4322 262.93 28.6782 225 28.6782ZM225 164.54C187.901 164.54 157.829 134.468 157.829 97.3692C157.829 60.2702 187.901 30.1982 225 30.1982C262.099 30.1982 292.171 60.2702 292.171 97.3692C292.171 134.468 262.099 164.54 225 164.54Z" fill="url(#paint13_linear_283_176)"/>
<path d="M24.96 336.048C17.31 331.641 11.241 325.571 6.745 317.833C2.248 310.101 0 301.553 0 292.197C0 282.841 2.248 274.301 6.745 266.562C11.242 258.823 17.31 252.754 24.96 248.347C32.602 243.94 40.972 241.736 50.061 241.736C57.169 241.736 63.847 242.997 70.102 245.513C76.357 248.036 81.506 251.582 85.55 256.175L77.322 264.403C74.265 260.626 70.347 257.725 65.584 255.7C60.813 253.674 55.686 252.665 50.203 252.665C43.369 252.665 37.003 254.305 31.112 257.592C25.221 260.879 20.494 265.509 16.94 271.489C13.386 277.469 11.613 284.377 11.613 292.197C11.613 300.017 13.386 306.933 16.94 312.913C20.494 318.893 25.235 323.531 31.178 326.81C37.114 330.097 43.458 331.737 50.202 331.737C56.947 331.737 62.096 330.728 66.459 328.702C70.822 326.676 74.576 324.005 77.73 320.674C80.067 318.159 81.959 315.124 83.399 311.57C84.838 308.016 85.736 304.083 86.1 299.765H50.343V289.103H96.761C97.214 291.626 97.436 293.963 97.436 296.122C97.436 302.058 96.494 307.838 94.602 313.462C92.71 319.086 89.698 324.013 85.557 328.235C76.653 337.866 64.819 342.674 50.068 342.674C40.979 342.674 32.617 340.47 24.967 336.063L24.96 336.048Z" fill="#6F96F3"/>
<path d="M117.254 337.932C112.038 334.786 107.964 330.445 105.041 324.91C102.118 319.375 100.656 313.15 100.656 306.22C100.656 299.29 102.029 293.451 104.774 287.871C107.519 282.291 111.407 277.84 116.445 274.515C121.483 271.191 127.33 269.522 133.985 269.522C140.64 269.522 146.576 271.028 151.525 274.041C156.474 277.053 160.273 281.216 162.929 286.521C165.585 291.826 166.913 297.903 166.913 304.736C166.913 306.086 166.779 307.259 166.505 308.246H112.126C112.393 313.462 113.654 317.877 115.903 321.468C118.151 325.067 121.008 327.767 124.473 329.563C127.938 331.366 131.559 332.264 135.336 332.264C144.151 332.264 150.94 328.131 155.711 319.851L165.423 324.577C162.455 330.157 158.426 334.564 153.344 337.799C148.261 341.034 142.118 342.659 134.928 342.659C128.362 342.659 122.47 341.086 117.254 337.932ZM154.768 298.808C154.59 295.929 153.774 293.05 152.342 290.171C150.903 287.292 148.632 284.866 145.531 282.885C142.43 280.904 138.534 279.917 133.86 279.917C128.466 279.917 123.895 281.646 120.163 285.111C116.431 288.576 113.975 293.139 112.81 298.808H154.776H154.768Z" fill="#6F96F3"/>
<path d="M173.117 271.682H184.046V281.803H184.588C186.569 278.293 189.537 275.37 193.492 273.033C197.447 270.696 201.631 269.523 206.039 269.523C211.077 269.523 215.462 270.74 219.194 273.166C222.926 275.592 225.605 278.835 227.222 282.878C229.648 278.827 232.868 275.592 236.868 273.166C240.867 270.74 245.527 269.523 250.832 269.523C258.749 269.523 264.707 271.927 268.714 276.742C272.713 281.557 274.717 288.102 274.717 296.375V340.5H263.38V298.133C263.38 291.745 262.074 287.115 259.47 284.236C256.858 281.357 252.993 279.918 247.866 279.918C244.445 279.918 241.344 280.912 238.554 282.886C235.764 284.867 233.583 287.516 232.01 290.847C230.437 294.178 229.651 297.777 229.651 301.643V340.508H218.18V298.275C218.18 291.798 216.874 287.123 214.27 284.244C211.658 281.365 207.837 279.926 202.799 279.926C199.379 279.926 196.277 280.935 193.487 282.961C190.697 284.987 188.516 287.687 186.943 291.056C185.37 294.432 184.584 298.053 184.584 301.918V340.508H173.11V271.69L173.117 271.682Z" fill="#6F96F3"/>
<path d="M284.035 271.682H294.964V281.803H295.506C297.487 278.293 300.455 275.37 304.41 273.033C308.365 270.696 312.549 269.523 316.957 269.523C321.995 269.523 326.38 270.74 330.112 273.166C333.844 275.592 336.523 278.835 338.14 282.878C340.566 278.827 343.786 275.592 347.786 273.166C351.785 270.74 356.445 269.523 361.75 269.523C369.667 269.523 375.625 271.927 379.632 276.742C383.631 281.557 385.635 288.102 385.635 296.375V340.5H374.298V298.133C374.298 291.745 372.992 287.115 370.388 284.236C367.776 281.357 363.911 279.918 358.784 279.918C355.363 279.918 352.262 280.912 349.472 282.886C346.682 284.867 344.501 287.516 342.928 290.847C341.355 294.178 340.569 297.777 340.569 301.643V340.508H329.098V298.275C329.098 291.798 327.792 287.123 325.188 284.244C322.576 281.365 318.755 279.926 313.717 279.926C310.296 279.926 307.195 280.935 304.405 282.961C301.615 284.987 299.434 287.687 297.861 291.056C296.288 294.432 295.502 298.053 295.502 301.918V340.508H284.031V271.69L284.035 271.682Z" fill="#6F96F3"/>
<path d="M402.781 339.691C398.819 337.71 395.762 334.994 393.603 331.529C391.444 328.064 390.368 324.132 390.368 319.724C390.368 312.438 393.113 306.747 398.597 302.651C404.08 298.555 411.01 296.515 419.38 296.515C423.513 296.515 427.364 296.968 430.918 297.865C434.472 298.762 437.195 299.802 439.08 300.966V296.781C439.08 291.654 437.277 287.536 433.686 284.435C430.087 281.334 425.539 279.783 420.056 279.783C416.183 279.783 412.636 280.614 409.394 282.283C406.159 283.952 403.592 286.26 401.7 289.235L393.063 282.758C395.764 278.625 399.474 275.383 404.193 273.046C408.912 270.709 414.15 269.536 419.915 269.536C429.271 269.536 436.624 271.985 441.974 276.889C447.324 281.793 450.002 288.471 450.002 296.93V340.514H439.073V330.661H438.531C436.55 333.992 433.582 336.827 429.627 339.164C425.665 341.501 421.213 342.674 416.271 342.674C411.329 342.674 406.737 341.68 402.775 339.706L402.781 339.691ZM428.149 329.57C431.473 327.589 434.129 324.94 436.11 321.609C438.084 318.285 439.078 314.642 439.078 310.68C436.919 309.241 434.263 308.076 431.117 307.17C427.964 306.272 424.64 305.82 421.13 305.82C414.831 305.82 410.089 307.126 406.892 309.73C403.694 312.342 402.099 315.71 402.099 319.851C402.099 323.628 403.538 326.685 406.417 329.029C409.296 331.366 412.939 332.539 417.346 332.539C421.212 332.539 424.81 331.552 428.142 329.571L428.149 329.57Z" fill="#6F96F3"/>
</g>
<defs>
<linearGradient id="paint0_linear_283_176" x1="128.143" y1="64.7717" x2="322.755" y2="64.1336" gradientUnits="userSpaceOnUse">
<stop offset="0.05" stop-color="#536EFA"/>
<stop offset="0.28" stop-color="#5780FA"/>
<stop offset="0.5" stop-color="#5C94FB"/>
<stop offset="0.72" stop-color="#82AAFB"/>
<stop offset="0.95" stop-color="#B5C3FC"/>
</linearGradient>
<linearGradient id="paint1_linear_283_176" x1="127.75" y1="130.594" x2="323.312" y2="129.956" gradientUnits="userSpaceOnUse">
<stop offset="0.05" stop-color="#536EFA"/>
<stop offset="0.28" stop-color="#5780FA"/>
<stop offset="0.5" stop-color="#5C94FB"/>
<stop offset="0.72" stop-color="#82AAFB"/>
<stop offset="0.95" stop-color="#B5C3FC"/>
</linearGradient>
<linearGradient id="paint2_linear_283_176" x1="127.55" y1="97.3624" x2="322.622" y2="97.3624" gradientUnits="userSpaceOnUse">
<stop offset="0.05" stop-color="#536EFA"/>
<stop offset="0.28" stop-color="#5780FA"/>
<stop offset="0.5" stop-color="#5C94FB"/>
<stop offset="0.72" stop-color="#82AAFB"/>
<stop offset="0.95" stop-color="#B5C3FC"/>
</linearGradient>
<linearGradient id="paint3_linear_283_176" x1="128.019" y1="97.7783" x2="323.304" y2="97.2292" gradientUnits="userSpaceOnUse">
<stop offset="0.05" stop-color="#536EFA"/>
<stop offset="0.28" stop-color="#5780FA"/>
<stop offset="0.5" stop-color="#5C94FB"/>
<stop offset="0.72" stop-color="#82AAFB"/>
<stop offset="0.95" stop-color="#B5C3FC"/>
</linearGradient>
<linearGradient id="paint4_linear_283_176" x1="126.651" y1="97.3697" x2="322.838" y2="97.3697" gradientUnits="userSpaceOnUse">
<stop offset="0.05" stop-color="#536EFA"/>
<stop offset="0.28" stop-color="#5780FA"/>
<stop offset="0.5" stop-color="#5C94FB"/>
<stop offset="0.72" stop-color="#82AAFB"/>
<stop offset="0.95" stop-color="#B5C3FC"/>
</linearGradient>
<linearGradient id="paint5_linear_283_176" x1="128.306" y1="145.993" x2="322.622" y2="145.355" gradientUnits="userSpaceOnUse">
<stop offset="0.05" stop-color="#536EFA"/>
<stop offset="0.28" stop-color="#5780FA"/>
<stop offset="0.5" stop-color="#5C94FB"/>
<stop offset="0.72" stop-color="#82AAFB"/>
<stop offset="0.95" stop-color="#B5C3FC"/>
</linearGradient>
<linearGradient id="paint6_linear_283_176" x1="128.306" y1="170.093" x2="322.622" y2="169.447" gradientUnits="userSpaceOnUse">
<stop offset="0.05" stop-color="#536EFA"/>
<stop offset="0.28" stop-color="#5780FA"/>
<stop offset="0.5" stop-color="#5C94FB"/>
<stop offset="0.72" stop-color="#82AAFB"/>
<stop offset="0.95" stop-color="#B5C3FC"/>
</linearGradient>
<linearGradient id="paint7_linear_283_176" x1="128.306" y1="25.2815" x2="322.622" y2="24.636" gradientUnits="userSpaceOnUse">
<stop offset="0.05" stop-color="#536EFA"/>
<stop offset="0.28" stop-color="#5780FA"/>
<stop offset="0.5" stop-color="#5C94FB"/>
<stop offset="0.72" stop-color="#82AAFB"/>
<stop offset="0.95" stop-color="#B5C3FC"/>
</linearGradient>
<linearGradient id="paint8_linear_283_176" x1="128.306" y1="49.3809" x2="322.622" y2="48.7429" gradientUnits="userSpaceOnUse">
<stop offset="0.05" stop-color="#536EFA"/>
<stop offset="0.28" stop-color="#5780FA"/>
<stop offset="0.5" stop-color="#5C94FB"/>
<stop offset="0.72" stop-color="#82AAFB"/>
<stop offset="0.95" stop-color="#B5C3FC"/>
</linearGradient>
<linearGradient id="paint9_linear_283_176" x1="55.8671" y1="97.6461" x2="250.494" y2="97.0971" gradientUnits="userSpaceOnUse">
<stop offset="0.05" stop-color="#536EFA"/>
<stop offset="0.28" stop-color="#5780FA"/>
<stop offset="0.5" stop-color="#5C94FB"/>
<stop offset="0.72" stop-color="#82AAFB"/>
<stop offset="0.95" stop-color="#B5C3FC"/>
</linearGradient>
<linearGradient id="paint10_linear_283_176" x1="127.512" y1="97.8574" x2="322.919" y2="97.3009" gradientUnits="userSpaceOnUse">
<stop offset="0.05" stop-color="#536EFA"/>
<stop offset="0.28" stop-color="#5780FA"/>
<stop offset="0.5" stop-color="#5C94FB"/>
<stop offset="0.72" stop-color="#82AAFB"/>
<stop offset="0.95" stop-color="#B5C3FC"/>
</linearGradient>
<linearGradient id="paint11_linear_283_176" x1="105.067" y1="59.3587" x2="294.701" y2="119.14" gradientUnits="userSpaceOnUse">
<stop offset="0.05" stop-color="#536EFA"/>
<stop offset="0.28" stop-color="#5780FA"/>
<stop offset="0.5" stop-color="#5C94FB"/>
<stop offset="0.72" stop-color="#82AAFB"/>
<stop offset="0.95" stop-color="#B5C3FC"/>
</linearGradient>
<linearGradient id="paint12_linear_283_176" x1="94.969" y1="41.4843" x2="175.807" y2="76.1048" gradientUnits="userSpaceOnUse">
<stop stop-color="#E2E5F6" stop-opacity="0"/>
<stop offset="0.25" stop-color="#CBD4F9" stop-opacity="0.5"/>
<stop offset="0.5" stop-color="#B5C3FC"/>
<stop offset="0.75" stop-color="#B5C3FC" stop-opacity="0.5"/>
<stop offset="1" stop-color="#B5C3FC" stop-opacity="0"/>
</linearGradient>
<linearGradient id="paint13_linear_283_176" x1="275.9" y1="98.059" x2="375.644" y2="99.4243" gradientUnits="userSpaceOnUse">
<stop stop-color="#E2E5F6" stop-opacity="0"/>
<stop offset="0.25" stop-color="#CBD4F9" stop-opacity="0.5"/>
<stop offset="0.5" stop-color="#B5C3FC"/>
<stop offset="0.75" stop-color="#B5C3FC" stop-opacity="0.5"/>
<stop offset="1" stop-color="#B5C3FC" stop-opacity="0"/>
</linearGradient>
<clipPath id="clip0_283_176">
<rect width="450" height="343" fill="white"/>
</clipPath>
</defs>
</svg>
